<svg width="162" height="128" viewBox="0 0 162 128" fill="none" xmlns="http://www.w3.org/2000/svg">
  <path
    d="M133.998 109.397H122.121V58H133.998V86.8239L146.014 70.6409H161.988L145.389 90.4356L161.988 109.397H146.222L133.998 93.9084V109.397Z"
    fill="#717FFE" />
  <path
    d="M107.339 70.6409V77.8642C110.117 72.7708 113.821 70.2241 118.452 70.2241V82.3093H115.535C112.803 82.3093 110.742 82.9576 109.353 84.2541C108.01 85.5506 107.339 87.8195 107.339 91.0607V109.397H95.4622V70.6409H107.339Z"
    fill="#717FFE" />
  <path
    d="M73.3584 97.1033C75.0717 95.4364 75.9283 93.0749 75.9283 90.0189C75.9283 86.9628 75.0717 84.6245 73.3584 83.0039C71.6452 81.337 69.6773 80.5035 67.4548 80.5035C65.2322 80.5035 63.2643 81.337 61.5511 83.0039C59.8378 84.6708 58.9812 87.0323 58.9812 90.0883C58.9812 93.1444 59.8378 95.5058 61.5511 97.1728C63.2643 98.7934 65.2322 99.6037 67.4548 99.6037C69.6773 99.6037 71.6452 98.7702 73.3584 97.1033ZM52.0357 104.327C48.6092 100.622 46.896 95.8763 46.896 90.0883C46.896 84.3004 48.6092 79.5543 52.0357 75.85C55.4621 72.0994 59.6295 70.2241 64.5376 70.2241C69.4921 70.2241 73.289 72.0531 75.9283 75.7111V70.6409H87.8051V109.397H75.9283V103.771C73.0575 107.846 69.2143 109.883 64.3987 109.883C59.5832 109.883 55.4621 108.031 52.0357 104.327Z"
    fill="#717FFE" />
  <path
    d="M30.2795 97.1728C31.9927 95.5058 32.8493 93.1444 32.8493 90.0883C32.8493 87.0323 31.9927 84.6708 30.2795 83.0039C28.5663 81.337 26.5984 80.5035 24.3758 80.5035C22.1532 80.5035 20.1853 81.337 18.4721 83.0039C16.7589 84.6245 15.9022 86.9628 15.9022 90.0189C15.9022 93.0749 16.7589 95.4364 18.4721 97.1033C20.1853 98.7702 22.1532 99.6037 24.3758 99.6037C26.5984 99.6037 28.5663 98.7934 30.2795 97.1728ZM15.9022 75.7111C18.5415 72.0531 22.3153 70.2241 27.2234 70.2241C32.1779 70.2241 36.3684 72.0994 39.7949 75.85C43.2213 79.5543 44.9345 84.3004 44.9345 90.0883C44.9345 95.8763 43.2213 100.622 39.7949 104.327C36.3684 108.031 32.2242 109.883 27.3624 109.883C22.5005 109.883 18.6805 107.846 15.9022 103.771V127.872H4.02539V70.6409H15.9022V75.7111Z"
    fill="#717FFE" />
  <path
    d="M141.15 54.6284C135.202 54.6284 130.327 52.727 126.524 48.9242C122.721 45.0727 120.82 39.978 120.82 33.64C120.82 27.302 122.697 22.256 126.451 18.502C130.254 14.748 135.153 12.871 141.15 12.871C147.147 12.871 152.12 14.7236 156.069 18.4289C160.018 22.1342 161.992 27.2777 161.992 33.8594C161.992 35.2732 161.895 36.5896 161.7 37.8084H133.618C133.861 39.6123 134.666 41.0993 136.031 42.2694C137.396 43.3907 138.859 43.9514 140.419 43.9514C142.028 43.9514 143.222 43.8051 144.002 43.5126C144.782 43.1713 145.343 42.8544 145.684 42.5619C146.074 42.2206 146.562 41.6843 147.147 40.953H160.676C159.506 45.0483 157.166 48.3636 153.655 50.8988C150.145 53.3852 145.977 54.6284 141.15 54.6284ZM148.975 29.9835C148.78 28.0821 147.951 26.5464 146.489 25.3763C145.026 24.1574 143.295 23.548 141.296 23.548C139.297 23.548 137.615 24.1574 136.25 25.3763C134.885 26.5464 134.032 28.0821 133.691 29.9835H148.975Z"
    fill="#353A66" />
  <path d="M103.248 54.1165V0H115.753V54.1165H103.248Z" fill="#353A66" />
  <path
    d="M79.9742 41.1724C81.7781 39.4173 82.6801 36.9309 82.6801 33.7131C82.6801 30.4954 81.7781 28.0333 79.9742 26.327C78.1704 24.5718 76.0983 23.6943 73.7582 23.6943C71.418 23.6943 69.346 24.5718 67.5421 26.327C65.7382 28.0821 64.8363 30.5685 64.8363 33.7863C64.8363 37.004 65.7382 39.4904 67.5421 41.2456C69.346 42.9519 71.418 43.8051 73.7582 43.8051C76.0983 43.8051 78.1704 42.9276 79.9742 41.1724ZM57.5232 48.778C53.9155 44.8777 52.1116 39.8805 52.1116 33.7863C52.1116 27.6921 53.9155 22.6948 57.5232 18.7945C61.131 14.8455 65.5188 12.871 70.6867 12.871C75.9033 12.871 79.9011 14.7967 82.6801 18.6483V13.3098H95.1854V54.1165H82.6801V48.1929C79.6573 52.4833 75.6108 54.6284 70.5404 54.6284C65.4701 54.6284 61.131 52.6783 57.5232 48.778Z"
    fill="#353A66" />
  <path
    d="M18.2095 54.1165L0 2.77893H13.3097L26.0344 41.9037L38.7591 2.77893H52.0688L33.8594 54.1165H18.2095Z"
    fill="#353A66" />
</svg>