<svg width="328" height="70" viewBox="0 0 328 70" fill="none" xmlns="http://www.w3.org/2000/svg">
  <path
    d="M299.972 51.3969H288.096V0H299.972V28.8239L311.988 12.6409H327.963L311.363 32.4356L327.963 51.3969H312.197L299.972 35.9084V51.3969Z"
    fill="#7DFFD8" />
  <path
    d="M273.313 12.6409V19.8642C276.092 14.7708 279.796 12.2241 284.426 12.2241V24.3093H281.509C278.777 24.3093 276.717 24.9576 275.328 26.2541C273.985 27.5506 273.313 29.8195 273.313 33.0607V51.3969H261.437V12.6409H273.313Z"
    fill="#7DFFD8" />
  <path
    d="M239.333 39.1033C241.046 37.4364 241.903 35.0749 241.903 32.0189C241.903 28.9628 241.046 26.6245 239.333 25.0039C237.62 23.337 235.652 22.5035 233.429 22.5035C231.207 22.5035 229.239 23.337 227.526 25.0039C225.812 26.6708 224.956 29.0323 224.956 32.0883C224.956 35.1444 225.812 37.5058 227.526 39.1728C229.239 40.7934 231.207 41.6037 233.429 41.6037C235.652 41.6037 237.62 40.7702 239.333 39.1033ZM218.01 46.3267C214.584 42.6224 212.871 37.8763 212.871 32.0883C212.871 26.3004 214.584 21.5543 218.01 17.85C221.437 14.0994 225.604 12.2241 230.512 12.2241C235.467 12.2241 239.264 14.0531 241.903 17.7111V12.6409H253.78V51.3969H241.903V45.771C239.032 49.8457 235.189 51.8831 230.373 51.8831C225.558 51.8831 221.437 50.0309 218.01 46.3267Z"
    fill="#7DFFD8" />
  <path
    d="M196.254 39.1728C197.967 37.5058 198.824 35.1444 198.824 32.0883C198.824 29.0323 197.967 26.6708 196.254 25.0039C194.541 23.337 192.573 22.5035 190.35 22.5035C188.128 22.5035 186.16 23.337 184.447 25.0039C182.733 26.6245 181.877 28.9628 181.877 32.0189C181.877 35.0749 182.733 37.4364 184.447 39.1033C186.16 40.7702 188.128 41.6037 190.35 41.6037C192.573 41.6037 194.541 40.7934 196.254 39.1728ZM181.877 17.7111C184.516 14.0531 188.29 12.2241 193.198 12.2241C198.153 12.2241 202.343 14.0994 205.769 17.85C209.196 21.5543 210.909 26.3004 210.909 32.0883C210.909 37.8763 209.196 42.6224 205.769 46.3267C202.343 50.0309 198.199 51.8831 193.337 51.8831C188.475 51.8831 184.655 49.8457 181.877 45.771V69.872H170V12.6409H181.877V17.7111Z"
    fill="#7DFFD8" />
  <path
    d="M141.15 54.6284C135.202 54.6284 130.327 52.727 126.524 48.9242C122.721 45.0727 120.82 39.978 120.82 33.64C120.82 27.302 122.697 22.256 126.451 18.502C130.254 14.748 135.153 12.871 141.15 12.871C147.147 12.871 152.12 14.7236 156.069 18.4289C160.018 22.1342 161.992 27.2777 161.992 33.8594C161.992 35.2732 161.895 36.5896 161.7 37.8084H133.618C133.862 39.6123 134.666 41.0993 136.031 42.2694C137.396 43.3907 138.859 43.9514 140.419 43.9514C142.028 43.9514 143.222 43.8051 144.002 43.5126C144.782 43.1713 145.343 42.8544 145.684 42.5619C146.074 42.2206 146.562 41.6843 147.147 40.953H160.676C159.506 45.0483 157.166 48.3636 153.655 50.8988C150.145 53.3852 145.977 54.6284 141.15 54.6284ZM148.975 29.9835C148.78 28.0821 147.951 26.5464 146.489 25.3763C145.026 24.1574 143.295 23.548 141.296 23.548C139.298 23.548 137.616 24.1574 136.25 25.3763C134.885 26.5464 134.032 28.0821 133.691 29.9835H148.975Z"
    fill="#FFFCF7" />
  <path d="M103.248 54.1165V0H115.753V54.1165H103.248Z" fill="#FFFCF7" />
  <path
    d="M79.9744 41.1724C81.7782 39.4173 82.6802 36.9309 82.6802 33.7131C82.6802 30.4954 81.7782 28.0333 79.9744 26.327C78.1705 24.5718 76.0985 23.6943 73.7583 23.6943C71.4181 23.6943 69.3461 24.5718 67.5422 26.327C65.7383 28.0821 64.8364 30.5685 64.8364 33.7863C64.8364 37.004 65.7383 39.4904 67.5422 41.2456C69.3461 42.9519 71.4181 43.8051 73.7583 43.8051C76.0985 43.8051 78.1705 42.9276 79.9744 41.1724ZM57.5233 48.778C53.9156 44.8777 52.1117 39.8805 52.1117 33.7863C52.1117 27.6921 53.9156 22.6948 57.5233 18.7945C61.1311 14.8455 65.5189 12.871 70.6868 12.871C75.9034 12.871 79.9012 14.7967 82.6802 18.6483V13.3098H95.1855V54.1165H82.6802V48.1929C79.6575 52.4833 75.6109 54.6284 70.5406 54.6284C65.4702 54.6284 61.1311 52.6783 57.5233 48.778Z"
    fill="#FFFCF7" />
  <path
    d="M18.2095 54.1165L0 2.77893H13.3097L26.0344 41.9037L38.7591 2.77893H52.0688L33.8594 54.1165H18.2095Z"
    fill="#FFFCF7" />
</svg>